<svg width="10" height="6" viewBox="0 0 10 6" fill="none" xmlns="http://www.w3.org/2000/svg">
<path fill-rule="evenodd" clip-rule="evenodd" d="M6.06063 0.176805C6.33117 -0.0729326 6.75295 -0.0560642 7.00268 0.214481L9.15653 2.54779C9.39226 2.80316 9.39227 3.19679 9.15654 3.45216L7.00269 5.78552C6.75295 6.05607 6.33118 6.07294 6.06063 5.82321C5.79008 5.57347 5.77321 5.1517 6.02295 4.88115L7.14402 3.66664L0.666666 3.66664C0.298476 3.66664 -5.09436e-07 3.36817 -5.24533e-07 2.99998C-5.39629e-07 2.63179 0.298476 2.33331 0.666666 2.33331L7.144 2.33331L6.02295 1.11886C5.77321 0.848315 5.79008 0.426542 6.06063 0.176805Z" fill="#FCFCFD"/>
</svg>
