<svg width="16" height="16" viewBox="0 0 16 16" fill="none" xmlns="http://www.w3.org/2000/svg">
<path fill-rule="evenodd" clip-rule="evenodd" d="M12.6667 13.3333C13.0349 13.3333 13.3334 13.0349 13.3334 12.6667C13.3334 12.2985 13.0349 12 12.6667 12C12.2986 12 12.0001 12.2985 12.0001 12.6667C12.0001 13.0349 12.2986 13.3333 12.6667 13.3333ZM12.6667 14.6667C13.7713 14.6667 14.6667 13.7712 14.6667 12.6667C14.6667 11.5621 13.7713 10.6667 12.6667 10.6667C11.5622 10.6667 10.6667 11.5621 10.6667 12.6667C10.6667 13.7712 11.5622 14.6667 12.6667 14.6667Z" fill="#777E91"/>
<path fill-rule="evenodd" clip-rule="evenodd" d="M10.3334 2.66666C9.41294 2.66666 8.66675 3.41285 8.66675 4.33333V11.6667C8.66675 13.3235 7.3236 14.6667 5.66675 14.6667C4.00989 14.6667 2.66675 13.3235 2.66675 11.6667V6.66666C2.66675 6.29847 2.96522 6 3.33341 6C3.7016 6 4.00008 6.29847 4.00008 6.66666V11.6667C4.00008 12.5871 4.74627 13.3333 5.66675 13.3333C6.58722 13.3333 7.33341 12.5871 7.33341 11.6667V4.33333C7.33341 2.67647 8.67656 1.33333 10.3334 1.33333C11.9903 1.33333 13.3334 2.67647 13.3334 4.33333V8.66666C13.3334 9.03485 13.0349 9.33333 12.6667 9.33333C12.2986 9.33333 12.0001 9.03485 12.0001 8.66666V4.33333C12.0001 3.41285 11.2539 2.66666 10.3334 2.66666Z" fill="#777E91"/>
<path d="M2.75738 1.65384C3.01463 1.21284 3.65183 1.21284 3.90909 1.65384L5.08173 3.66409C5.34098 4.10853 5.0204 4.66667 4.50587 4.66667H2.16059C1.64606 4.66667 1.32548 4.10852 1.58474 3.66409L2.75738 1.65384Z" fill="#777E91"/>
</svg>
