<svg width="19" height="23" viewBox="0 0 19 23" fill="none" xmlns="http://www.w3.org/2000/svg">
<path d="M0 22C0 21.4477 0.447715 21 1 21H17C17.5523 21 18 21.4477 18 22C18 22.5523 17.5523 23 17 23H1C0.447716 23 0 22.5523 0 22Z" fill="#B1B5C4"/>
<path fill-rule="evenodd" clip-rule="evenodd" d="M13.7071 3.12126C13.3166 2.73074 12.6834 2.73074 12.2929 3.12126L11.4142 3.99991L15 7.5857L15.8787 6.70705C16.2692 6.31652 16.2692 5.68336 15.8787 5.29284L13.7071 3.12126ZM3.91425 11.4999L10 5.41412L13.5858 8.99991L7.50003 15.0857L3.91425 11.4999ZM2.50003 12.9141L2 13.4142V16.9999H5.58579L6.08582 16.4999L2.50003 12.9141ZM10.8787 1.70705C12.0503 0.535476 13.9497 0.535476 15.1213 1.70705L17.2929 3.87862C18.4645 5.0502 18.4645 6.94969 17.2929 8.12126L7 18.4142C6.62493 18.7892 6.11622 18.9999 5.58579 18.9999H2C0.89543 18.9999 0 18.1045 0 16.9999V13.4142C0 12.8837 0.210714 12.375 0.585786 11.9999L10.8787 1.70705Z" fill="#B1B5C4"/>
</svg>
