<svg width="18" height="18" viewBox="0 0 18 18" fill="none" xmlns="http://www.w3.org/2000/svg">
<path fill-rule="evenodd" clip-rule="evenodd" d="M9.00033 15.6665C12.6822 15.6665 15.667 12.6818 15.667 8.99984C15.667 5.31794 12.6822 2.33317 9.00033 2.33317C5.31843 2.33317 2.33366 5.31794 2.33366 8.99984C2.33366 12.6818 5.31843 15.6665 9.00033 15.6665ZM9.00033 17.3332C13.6027 17.3332 17.3337 13.6022 17.3337 8.99984C17.3337 4.39746 13.6027 0.666504 9.00033 0.666504C4.39795 0.666504 0.666992 4.39746 0.666992 8.99984C0.666992 13.6022 4.39795 17.3332 9.00033 17.3332Z" fill="#777E91"/>
<path d="M9.00033 7.33317C9.00033 6.87294 9.37341 6.49984 9.83366 6.49984H10.667C11.1272 6.49984 11.5003 6.12675 11.5003 5.6665C11.5003 5.20627 11.1272 4.83317 10.667 4.83317H9.83366C8.45291 4.83317 7.33366 5.95246 7.33366 7.33317V8.99984H6.50033C6.04009 8.99984 5.66699 9.37292 5.66699 9.83317C5.66699 10.2934 6.04008 10.6665 6.50033 10.6665H7.33366V15.6665C7.33366 16.1268 7.70674 16.4998 8.16699 16.4998C8.62724 16.4998 9.00033 16.1268 9.00033 15.6665L9.00033 10.6665H10.667C11.1272 10.6665 11.5003 10.2934 11.5003 9.83317C11.5003 9.37292 11.1272 8.99984 10.667 8.99984H9.00033V7.33317Z" fill="#777E91"/>
</svg>
