<svg width="18" height="22" viewBox="0 0 18 22" fill="none" xmlns="http://www.w3.org/2000/svg">
<path fill-rule="evenodd" clip-rule="evenodd" d="M11 1C11 0.447715 10.5523 0 10 0H3C1.34315 0 0 1.34315 0 3V19C0 20.6569 1.34315 22 3 22H15C16.6569 22 18 20.6569 18 19V8C18 7.44772 17.5523 7 17 7H14C12.3431 7 11 5.65685 11 4V1ZM8.29289 8.29289C8.38877 8.19702 8.49927 8.12468 8.61722 8.07588C8.97969 7.92591 9.41246 7.99825 9.70711 8.29289L12.7071 11.2929C13.0976 11.6834 13.0976 12.3166 12.7071 12.7071C12.3166 13.0976 11.6834 13.0976 11.2929 12.7071L10 11.4142V16C10 16.5523 9.55228 17 9 17C8.44772 17 8 16.5523 8 16V11.4142L6.70711 12.7071C6.31658 13.0976 5.68342 13.0976 5.29289 12.7071C4.90237 12.3166 4.90237 11.6834 5.29289 11.2929L8.29289 8.29289Z" fill="#777E91"/>
<path d="M13.9774 0.177566C13.4681 -0.0360106 13 0.447767 13 1.00005V4.00005C13 4.55234 13.4477 5.00005 14 5.00005H17C17.5523 5.00005 18.0361 4.53194 17.8225 4.02262C17.73 3.80212 17.5972 3.59721 17.4142 3.41427L14.5858 0.585838C14.4028 0.402892 14.1979 0.270032 13.9774 0.177566Z" fill="#777E91"/>
</svg>
