<svg width="18" height="22" viewBox="0 0 18 22" fill="none" xmlns="http://www.w3.org/2000/svg">
<path fill-rule="evenodd" clip-rule="evenodd" d="M11 1C11 0.447715 10.5523 0 10 0H3C1.34315 0 0 1.34315 0 3V19C0 20.6569 1.34315 22 3 22H15C16.6569 22 18 20.6569 18 19V8C18 7.44772 17.5523 7 17 7H14C12.3431 7 11 5.65685 11 4V1ZM9.70711 16.7071C9.61123 16.803 9.50073 16.8753 9.38278 16.9241C9.02031 17.0741 8.58754 17.0018 8.29289 16.7071L5.29289 13.7071C4.90237 13.3166 4.90237 12.6834 5.29289 12.2929C5.68342 11.9024 6.31658 11.9024 6.70711 12.2929L8 13.5858V9C8 8.44772 8.44771 8 9 8C9.55228 8 10 8.44772 10 9V13.5858L11.2929 12.2929C11.6834 11.9024 12.3166 11.9024 12.7071 12.2929C13.0976 12.6834 13.0976 13.3166 12.7071 13.7071L9.70711 16.7071Z" fill="#EB5757"/>
<path d="M13.9774 0.177566C13.4681 -0.0360106 13 0.447767 13 1.00005V4.00005C13 4.55234 13.4477 5.00005 14 5.00005H17C17.5523 5.00005 18.0361 4.53194 17.8225 4.02262C17.73 3.80212 17.5972 3.59721 17.4142 3.41427L14.5858 0.585838C14.4028 0.402892 14.1979 0.270032 13.9774 0.177566Z" fill="#EB5757"/>
</svg>
