<svg width="14" height="20" viewBox="0 0 14 20" fill="none" xmlns="http://www.w3.org/2000/svg">
<path fill-rule="evenodd" clip-rule="evenodd" d="M10.3334 7.5L12.9751 4.41798C13.9018 3.33686 13.1336 1.66667 11.7097 1.66667L0.333374 1.66667L0.333374 13.3333H11.7097C13.1336 13.3333 13.9018 11.6631 12.9751 10.582L10.3334 7.5ZM2.00004 11.6667L11.7097 11.6667L8.13824 7.5L11.7097 3.33333L2.00004 3.33333L2.00004 11.6667Z" fill="#777E91"/>
<path d="M0.333374 0.833334C0.333374 0.373096 0.70647 0 1.16671 0C1.62694 0 2.00004 0.373096 2.00004 0.833333V19.1667C2.00004 19.6269 1.62694 20 1.16671 20C0.70647 20 0.333374 19.6269 0.333374 19.1667V0.833334Z" fill="#777E91"/>
</svg>
