<svg width="18" height="18" viewBox="0 0 18 18" fill="none" xmlns="http://www.w3.org/2000/svg">
<path fill-rule="evenodd" clip-rule="evenodd" d="M12.3337 2.33317H5.66699C3.82604 2.33317 2.33366 3.82555 2.33366 5.6665V12.3332C2.33366 14.1741 3.82604 15.6665 5.66699 15.6665H12.3337C14.1746 15.6665 15.667 14.1741 15.667 12.3332V5.6665C15.667 3.82555 14.1746 2.33317 12.3337 2.33317ZM5.66699 0.666504C2.90557 0.666504 0.666992 2.90508 0.666992 5.6665V12.3332C0.666992 15.0946 2.90557 17.3332 5.66699 17.3332H12.3337C15.0951 17.3332 17.3337 15.0946 17.3337 12.3332V5.6665C17.3337 2.90508 15.0951 0.666504 12.3337 0.666504H5.66699Z" fill="#777E91"/>
<path d="M13.167 5.6665C13.6272 5.6665 14.0003 5.2934 14.0003 4.83317C14.0003 4.37294 13.6272 3.99984 13.167 3.99984C12.7067 3.99984 12.3337 4.37294 12.3337 4.83317C12.3337 5.2934 12.7067 5.6665 13.167 5.6665Z" fill="#777E91"/>
<path fill-rule="evenodd" clip-rule="evenodd" d="M13.167 8.99984C13.167 11.301 11.3015 13.1665 9.00033 13.1665C6.69914 13.1665 4.83366 11.301 4.83366 8.99984C4.83366 6.69865 6.69914 4.83317 9.00033 4.83317C11.3015 4.83317 13.167 6.69865 13.167 8.99984ZM11.5003 8.99984C11.5003 10.3806 10.3811 11.4998 9.00033 11.4998C7.61958 11.4998 6.50033 10.3806 6.50033 8.99984C6.50033 7.61909 7.61958 6.49984 9.00033 6.49984C10.3811 6.49984 11.5003 7.61909 11.5003 8.99984Z" fill="#777E91"/>
</svg>
