<svg width="14" height="14" viewBox="0 0 14 14" fill="none" xmlns="http://www.w3.org/2000/svg">
<path d="M6.66667 0C6.29848 0 6 0.298477 6 0.666667V2.66667C6 3.03486 6.29848 3.33333 6.66667 3.33333C7.03486 3.33333 7.33333 3.03486 7.33333 2.66667V0.666667C7.33333 0.298477 7.03486 0 6.66667 0Z" fill="#FCFCFD"/>
<path d="M6.66667 10C6.29848 10 6 10.2985 6 10.6667V12.6667C6 13.0349 6.29848 13.3333 6.66667 13.3333C7.03486 13.3333 7.33333 13.0349 7.33333 12.6667V10.6667C7.33333 10.2985 7.03486 10 6.66667 10Z" fill="#FCFCFD"/>
<path d="M12.6667 6C13.0349 6 13.3333 6.29848 13.3333 6.66667C13.3333 7.03486 13.0349 7.33333 12.6667 7.33333H10.6667C10.2985 7.33333 10 7.03486 10 6.66667C10 6.29848 10.2985 6 10.6667 6H12.6667Z" fill="#FCFCFD"/>
<path d="M3.33333 6.66667C3.33333 6.29848 3.03486 6 2.66667 6H0.666667C0.298477 6 0 6.29848 0 6.66667C-7.94729e-08 7.03486 0.298477 7.33333 0.666667 7.33333H2.66667C3.03486 7.33333 3.33333 7.03486 3.33333 6.66667Z" fill="#FCFCFD"/>
<path d="M10.4379 1.95269C10.6983 1.69234 11.1204 1.69234 11.3807 1.95269C11.6411 2.21304 11.6411 2.63515 11.3807 2.8955L9.96653 4.30971C9.70618 4.57006 9.28407 4.57006 9.02372 4.30971C8.76338 4.04936 8.76338 3.62725 9.02372 3.3669L10.4379 1.95269Z" fill="#FCFCFD"/>
<path d="M4.30962 9.02365C4.04927 8.7633 3.62716 8.7633 3.36681 9.02365L1.9526 10.4379C1.69225 10.6982 1.69225 11.1203 1.9526 11.3807C2.21295 11.641 2.63506 11.641 2.89541 11.3807L4.30962 9.96646C4.56997 9.70611 4.56997 9.284 4.30962 9.02365Z" fill="#FCFCFD"/>
<path d="M11.3807 10.4379C11.6411 10.6983 11.6411 11.1204 11.3807 11.3807C11.1204 11.6411 10.6983 11.6411 10.4379 11.3807L9.02371 9.96653C8.76336 9.70618 8.76336 9.28407 9.02371 9.02372C9.28406 8.76338 9.70617 8.76338 9.96651 9.02372L11.3807 10.4379Z" fill="#FCFCFD"/>
<path d="M4.30968 4.30962C4.57003 4.04927 4.57003 3.62716 4.30968 3.36681L2.89547 1.9526C2.63512 1.69225 2.21301 1.69225 1.95266 1.9526C1.69231 2.21295 1.69231 2.63506 1.95266 2.89541L3.36687 4.30962C3.62722 4.56997 4.04933 4.56997 4.30968 4.30962Z" fill="#FCFCFD"/>
</svg>
