<svg width="23" height="16" viewBox="0 0 23 16" fill="none" xmlns="http://www.w3.org/2000/svg">
<path fill-rule="evenodd" clip-rule="evenodd" d="M11.2242 14C15.3497 14 18.2834 11.4076 20.0014 9.24864C20.5973 8.49982 20.5973 7.50018 20.0014 6.75136C18.2834 4.59239 15.3497 2 11.2242 2C7.09869 2 4.16498 4.59238 2.44692 6.75135C1.85103 7.50018 1.85103 8.49982 2.44692 9.24864C4.16498 11.4076 7.09869 14 11.2242 14ZM21.5664 10.494C22.7424 9.01626 22.7424 6.98374 21.5664 5.506C19.6981 3.15826 16.2507 0 11.2242 0C6.19765 0 2.75024 3.15826 0.881966 5.506C-0.293988 6.98374 -0.293989 9.01626 0.881966 10.494C2.75024 12.8417 6.19765 16 11.2242 16C16.2507 16 19.6981 12.8417 21.5664 10.494Z" fill="#3B71FE"/>
<path fill-rule="evenodd" clip-rule="evenodd" d="M13.2242 8C13.2242 9.10457 12.3288 10 11.2242 10C10.1196 10 9.22419 9.10457 9.22419 8C9.22419 7.97161 9.22478 7.94337 9.22595 7.91527C9.38184 7.97015 9.54953 8 9.72419 8C10.5526 8 11.2242 7.32843 11.2242 6.5C11.2242 6.32534 11.1943 6.15765 11.1395 6.00176C11.1676 6.00059 11.1958 6 11.2242 6C12.3288 6 13.2242 6.89543 13.2242 8ZM15.2242 8C15.2242 10.2091 13.4333 12 11.2242 12C9.01505 12 7.22419 10.2091 7.22419 8C7.22419 5.79086 9.01505 4 11.2242 4C13.4333 4 15.2242 5.79086 15.2242 8Z" fill="#3B71FE"/>
</svg>
