<svg width="16" height="20" viewBox="0 0 16 20" fill="none" xmlns="http://www.w3.org/2000/svg">
<path fill-rule="evenodd" clip-rule="evenodd" d="M8 10.8333C4.77834 10.8333 2.16667 13.445 2.16667 16.6667V18.3333C2.16667 18.7936 1.79357 19.1667 1.33333 19.1667C0.873096 19.1667 0.5 18.7936 0.5 18.3333V16.6667C0.5 12.5245 3.85786 9.16666 8 9.16666C12.1421 9.16666 15.5 12.5245 15.5 16.6667V18.3333C15.5 18.7936 15.1269 19.1667 14.6667 19.1667C14.2064 19.1667 13.8333 18.7936 13.8333 18.3333V16.6667C13.8333 13.445 11.2217 10.8333 8 10.8333Z" fill="#777E91"/>
<path fill-rule="evenodd" clip-rule="evenodd" d="M8 9.16666C9.84095 9.16666 11.3333 7.67428 11.3333 5.83333C11.3333 3.99238 9.84095 2.49999 8 2.49999C6.15905 2.49999 4.66667 3.99238 4.66667 5.83333C4.66667 7.67428 6.15905 9.16666 8 9.16666ZM8 10.8333C10.7614 10.8333 13 8.59475 13 5.83333C13 3.0719 10.7614 0.833328 8 0.833328C5.23858 0.833328 3 3.0719 3 5.83333C3 8.59475 5.23858 10.8333 8 10.8333Z" fill="#777E91"/>
</svg>
