<svg width="18" height="22" viewBox="0 0 18 22" fill="none" xmlns="http://www.w3.org/2000/svg">
<path fill-rule="evenodd" clip-rule="evenodd" d="M11 1C11 0.447715 10.5523 0 10 0H3C1.34315 0 0 1.34315 0 3V19C0 20.6569 1.34315 22 3 22H15C16.6569 22 18 20.6569 18 19V8C18 7.44772 17.5523 7 17 7H14C12.3431 7 11 5.65685 11 4V1ZM6 12C5.44772 12 5 12.4477 5 13C5 13.5523 5.44772 14 6 14H12C12.5523 14 13 13.5523 13 13C13 12.4477 12.5523 12 12 12H6Z" fill="#777E91"/>
<path d="M13.9774 0.177566C13.4681 -0.0360106 13 0.447767 13 1.00005V4.00005C13 4.55234 13.4477 5.00005 14 5.00005H17C17.5523 5.00005 18.0361 4.53194 17.8225 4.02262C17.73 3.80212 17.5972 3.59721 17.4142 3.41427L14.5858 0.585838C14.4028 0.402892 14.1979 0.270032 13.9774 0.177566Z" fill="#777E91"/>
</svg>
