<svg width="18" height="18" viewBox="0 0 18 18" fill="none" xmlns="http://www.w3.org/2000/svg">
<path fill-rule="evenodd" clip-rule="evenodd" d="M0.910746 10.0774C1.23618 9.752 1.76382 9.752 2.08926 10.0774L4.83333 12.8215C5.15877 13.147 5.15877 13.6746 4.83333 14C4.5079 14.3255 3.98026 14.3255 3.65482 14L0.910746 11.256C0.585309 10.9305 0.585309 10.4029 0.910746 10.0774Z" fill="#777E91"/>
<path d="M17.1123 3.73193C17.4245 3.39375 17.4034 2.86653 17.0652 2.55436C16.727 2.2422 16.1998 2.26328 15.8876 2.60147L6.45285 12.8225C6.14068 13.1606 6.16177 13.6879 6.49996 14C6.83814 14.3122 7.36536 14.2911 7.67753 13.9529L13.4299 7.72122C13.5904 7.54733 13.8633 7.54187 14.0307 7.70921L15.0774 8.75595C15.4029 9.08139 15.9305 9.08139 16.2559 8.75595C16.5814 8.43052 16.5814 7.90288 16.2559 7.57744L15.1385 6.45999C14.9803 6.30185 14.9752 6.04708 15.1269 5.88274L17.1123 3.73193Z" fill="#777E91"/>
<path fill-rule="evenodd" clip-rule="evenodd" d="M3.8989 9.73226L2.43444 8.2678C1.45813 7.29149 1.45812 5.70857 2.43444 4.73226L5.56557 1.60113C6.54188 0.624818 8.12479 0.62482 9.1011 1.60113L10.5656 3.0656C11.5419 4.04191 11.5419 5.62482 10.5656 6.60113L7.43443 9.73227C6.45812 10.7086 4.87521 10.7086 3.8989 9.73226ZM3.61295 7.08929L5.07741 8.55375C5.40285 8.87919 5.93049 8.87919 6.25592 8.55375L9.38706 5.42262C9.71249 5.09718 9.71249 4.56954 9.38706 4.24411L7.92259 2.77964C7.59715 2.4542 7.06952 2.4542 6.74408 2.77964L3.61295 5.91077C3.28751 6.23621 3.28751 6.76385 3.61295 7.08929Z" fill="#777E91"/>
<path fill-rule="evenodd" clip-rule="evenodd" d="M5.66667 15.6667C6.12691 15.6667 6.5 15.2936 6.5 14.8334C6.5 14.3731 6.12691 14 5.66667 14C5.20643 14 4.83333 14.3731 4.83333 14.8334C4.83333 15.2936 5.20643 15.6667 5.66667 15.6667ZM5.66667 17.3334C7.04738 17.3334 8.16667 16.2141 8.16667 14.8334C8.16667 13.4527 7.04738 12.3334 5.66667 12.3334C4.28596 12.3334 3.16667 13.4527 3.16667 14.8334C3.16667 16.2141 4.28596 17.3334 5.66667 17.3334Z" fill="#777E91"/>
</svg>
