<svg width="18" height="18" viewBox="0 0 18 18" fill="none" xmlns="http://www.w3.org/2000/svg">
<path fill-rule="evenodd" clip-rule="evenodd" d="M14 2.74996C14 2.51984 13.8135 2.33329 13.5833 2.33329H4.41667C4.18655 2.33329 4 2.51984 4 2.74996V14.0232C4 14.305 4.29657 14.4883 4.54863 14.3623C5.25245 14.0103 6.08088 14.0103 6.7847 14.3623L8.62732 15.2836C8.86193 15.4009 9.13807 15.4009 9.37268 15.2836L11.2153 14.3623C11.9191 14.0103 12.7475 14.0103 13.4514 14.3623C13.7034 14.4883 14 14.305 14 14.0232V2.74996ZM15.6667 16.6591C15.6667 16.9689 15.3407 17.1703 15.0637 17.0318L12.706 15.853C12.4714 15.7357 12.1953 15.7357 11.9607 15.853L10.118 16.7743C9.41422 17.1262 8.58579 17.1262 7.88197 16.7743L6.03935 15.853C5.80474 15.7357 5.5286 15.7357 5.29399 15.853L2.93634 17.0318C2.6593 17.1703 2.33333 16.9689 2.33333 16.6591V0.666626H15.6667V16.6591Z" fill="#777E91"/>
<path d="M6.5 3.99996C6.03976 3.99996 5.66667 4.37306 5.66667 4.83329C5.66667 5.29353 6.03976 5.66663 6.5 5.66663H8.16667C8.6269 5.66663 9 5.29353 9 4.83329C9 4.37306 8.6269 3.99996 8.16667 3.99996H6.5Z" fill="#777E91"/>
<path d="M11.5 3.99996C11.0398 3.99996 10.6667 4.37306 10.6667 4.83329C10.6667 5.29353 11.0398 5.66663 11.5 5.66663C11.9602 5.66663 12.3333 5.29353 12.3333 4.83329C12.3333 4.37306 11.9602 3.99996 11.5 3.99996Z" fill="#777E91"/>
<path d="M5.66667 8.16663C5.66667 7.70639 6.03976 7.33329 6.5 7.33329H8.16667C8.6269 7.33329 9 7.70639 9 8.16663C9 8.62686 8.6269 8.99996 8.16667 8.99996H6.5C6.03976 8.99996 5.66667 8.62686 5.66667 8.16663Z" fill="#777E91"/>
<path d="M11.5 7.33329C11.0398 7.33329 10.6667 7.70639 10.6667 8.16663C10.6667 8.62686 11.0398 8.99996 11.5 8.99996C11.9602 8.99996 12.3333 8.62686 12.3333 8.16663C12.3333 7.70639 11.9602 7.33329 11.5 7.33329Z" fill="#777E91"/>
<path d="M5.66667 11.5C5.66667 11.0397 6.03976 10.6666 6.5 10.6666H8.16667C8.6269 10.6666 9 11.0397 9 11.5C9 11.9602 8.6269 12.3333 8.16667 12.3333H6.5C6.03976 12.3333 5.66667 11.9602 5.66667 11.5Z" fill="#777E91"/>
<path d="M11.5 10.6666C11.0398 10.6666 10.6667 11.0397 10.6667 11.5C10.6667 11.9602 11.0398 12.3333 11.5 12.3333C11.9602 12.3333 12.3333 11.9602 12.3333 11.5C12.3333 11.0397 11.9602 10.6666 11.5 10.6666Z" fill="#777E91"/>
<path d="M0.666668 1.49996C0.666668 1.03972 1.03976 0.666626 1.5 0.666626H16.5C16.9602 0.666626 17.3333 1.03972 17.3333 1.49996C17.3333 1.9602 16.9602 2.33329 16.5 2.33329H1.5C1.03976 2.33329 0.666668 1.9602 0.666668 1.49996Z" fill="#777E91"/>
</svg>
