<svg width="18" height="18" viewBox="0 0 18 18" fill="none" xmlns="http://www.w3.org/2000/svg">
<path fill-rule="evenodd" clip-rule="evenodd" d="M14.8333 4.00002H3.16667C2.70643 4.00002 2.33333 4.37312 2.33333 4.83335V14.8334C2.33333 15.2936 2.70643 15.6667 3.16667 15.6667H14.8333C15.2936 15.6667 15.6667 15.2936 15.6667 14.8334V4.83335C15.6667 4.37312 15.2936 4.00002 14.8333 4.00002ZM3.16667 2.33335C1.78596 2.33335 0.666668 3.45264 0.666668 4.83335V14.8334C0.666668 16.2141 1.78596 17.3334 3.16667 17.3334H14.8333C16.214 17.3334 17.3333 16.2141 17.3333 14.8334V4.83335C17.3333 3.45264 16.214 2.33335 14.8333 2.33335H3.16667Z" fill="#777E91"/>
<path fill-rule="evenodd" clip-rule="evenodd" d="M7.33333 9.00002C6.8731 9.00002 6.5 9.37312 6.5 9.83335C6.5 10.2936 6.8731 10.6667 7.33333 10.6667H13.1667C13.6269 10.6667 14 10.2936 14 9.83335C14 9.37312 13.6269 9.00002 13.1667 9.00002H7.33333ZM4.83333 12.3334C4.3731 12.3334 4 12.7064 4 13.1667C4 13.6269 4.3731 14 4.83333 14H9.83333C10.2936 14 10.6667 13.6269 10.6667 13.1667C10.6667 12.7064 10.2936 12.3334 9.83333 12.3334H4.83333Z" fill="#777E91"/>
<path fill-rule="evenodd" clip-rule="evenodd" d="M4.83333 0.666687C4.3731 0.666687 4 1.03978 4 1.50002V4.83335C4 5.29359 4.3731 5.66669 4.83333 5.66669C5.29357 5.66669 5.66667 5.29359 5.66667 4.83335V1.50002C5.66667 1.03978 5.29357 0.666687 4.83333 0.666687ZM13.1667 0.666687C12.7064 0.666687 12.3333 1.03978 12.3333 1.50002V4.83335C12.3333 5.29359 12.7064 5.66669 13.1667 5.66669C13.6269 5.66669 14 5.29359 14 4.83335V1.50002C14 1.03978 13.6269 0.666687 13.1667 0.666687Z" fill="#777E91"/>
</svg>
