<svg width="20" height="16" viewBox="0 0 20 16" fill="none" xmlns="http://www.w3.org/2000/svg">
<path fill-rule="evenodd" clip-rule="evenodd" d="M15.8333 2.16667H4.16667C3.24619 2.16667 2.5 2.91286 2.5 3.83333V12.1667C2.5 13.0871 3.24619 13.8333 4.16667 13.8333H15.8333C16.7538 13.8333 17.5 13.0871 17.5 12.1667V3.83333C17.5 2.91286 16.7538 2.16667 15.8333 2.16667ZM4.16667 0.5C2.32572 0.5 0.833332 1.99238 0.833332 3.83333V12.1667C0.833332 14.0076 2.32572 15.5 4.16667 15.5H15.8333C17.6743 15.5 19.1667 14.0076 19.1667 12.1667V3.83333C19.1667 1.99238 17.6743 0.5 15.8333 0.5H4.16667Z" fill="#777E91"/>
<path fill-rule="evenodd" clip-rule="evenodd" d="M10.8333 8C10.8333 5.69881 12.6988 3.83333 15 3.83333H18.3333C18.7936 3.83333 19.1667 4.20643 19.1667 4.66667C19.1667 5.1269 18.7936 5.5 18.3333 5.5H15C13.6193 5.5 12.5 6.61929 12.5 8C12.5 9.38071 13.6193 10.5 15 10.5H18.3333C18.7936 10.5 19.1667 10.8731 19.1667 11.3333C19.1667 11.7936 18.7936 12.1667 18.3333 12.1667H15C12.6988 12.1667 10.8333 10.3012 10.8333 8Z" fill="#777E91"/>
<path d="M15.8333 8C15.8333 8.46024 15.4602 8.83333 15 8.83333C14.5398 8.83333 14.1667 8.46024 14.1667 8C14.1667 7.53976 14.5398 7.16667 15 7.16667C15.4602 7.16667 15.8333 7.53976 15.8333 8Z" fill="#777E91"/>
</svg>
