<svg width="22" height="18" viewBox="0 0 22 18" fill="none" xmlns="http://www.w3.org/2000/svg">
<path d="M1 18C0.447716 18 2.41411e-08 17.5523 0 17C-2.41411e-08 16.4477 0.447715 16 1 16H21C21.5523 16 22 16.4477 22 17C22 17.5523 21.5523 18 21 18H1Z" fill="#777E91"/>
<path d="M12 1C12 0.447715 11.5523 0 11 0C10.4477 0 10 0.447715 10 1V10.5858L8.70711 9.29289C8.31658 8.90237 7.68342 8.90237 7.29289 9.29289C6.90237 9.68342 6.90237 10.3166 7.29289 10.7071L10.2929 13.7071C10.6834 14.0976 11.3166 14.0976 11.7071 13.7071L14.7071 10.7071C15.0976 10.3166 15.0976 9.68342 14.7071 9.29289C14.3166 8.90237 13.6834 8.90237 13.2929 9.29289L12 10.5858V1Z" fill="#777E91"/>
</svg>
